<mxfile host="Electron" modified="2021-09-03T00:59:37.779Z" agent="5.0 (X11; Linux x86_64) AppleWebKit/537.36 (KHTML, like Gecko) draw.io/14.6.13 Chrome/91.0.4472.164 Electron/13.1.9 Safari/537.36" etag="v8RspySWts4g5kgcmVsC" compressed="false" version="14.6.13" type="device">
  <diagram id="prtHgNgQTEPvFCAcTncT" name="Page-1">
    <mxGraphModel dx="1408" dy="826" grid="1" gridSize="10" guides="1" tooltips="1" connect="1" arrows="1" fold="1" page="1" pageScale="1" pageWidth="827" pageHeight="1169" math="0" shadow="0">
      <root>
        <mxCell id="0" />
        <mxCell id="1" parent="0" />
        <mxCell id="fNoOviHElrBXO7P96PJo-56" value="Preprocessamento e allineamento dei dati RNA-seq" style="swimlane;rounded=1;fontSize=10;fillColor=#e1d5e7;strokeColor=#9673a6;gradientColor=#ffffff;swimlaneFillColor=none;" parent="1" vertex="1">
          <mxGeometry x="24" y="70" width="390" height="390" as="geometry" />
        </mxCell>
        <mxCell id="vsyQtTesX6xpcypo9VDb-11" style="edgeStyle=orthogonalEdgeStyle;rounded=0;orthogonalLoop=1;jettySize=auto;html=1;exitX=0;exitY=0.5;exitDx=0;exitDy=0;entryX=0.75;entryY=1;entryDx=0;entryDy=0;strokeColor=#FF0000;" parent="fNoOviHElrBXO7P96PJo-56" source="fNoOviHElrBXO7P96PJo-25" target="fNoOviHElrBXO7P96PJo-5" edge="1">
          <mxGeometry relative="1" as="geometry">
            <Array as="points">
              <mxPoint x="256" y="280" />
              <mxPoint x="215" y="280" />
            </Array>
          </mxGeometry>
        </mxCell>
        <mxCell id="vsyQtTesX6xpcypo9VDb-12" style="edgeStyle=orthogonalEdgeStyle;rounded=0;orthogonalLoop=1;jettySize=auto;html=1;exitX=0.5;exitY=1;exitDx=0;exitDy=0;entryX=0.618;entryY=-0.02;entryDx=0;entryDy=0;entryPerimeter=0;strokeColor=#FF0000;" parent="fNoOviHElrBXO7P96PJo-56" source="fNoOviHElrBXO7P96PJo-5" target="fNoOviHElrBXO7P96PJo-27" edge="1">
          <mxGeometry relative="1" as="geometry" />
        </mxCell>
        <mxCell id="vsyQtTesX6xpcypo9VDb-13" style="edgeStyle=orthogonalEdgeStyle;rounded=0;orthogonalLoop=1;jettySize=auto;html=1;exitX=0.25;exitY=0;exitDx=0;exitDy=0;entryX=0.146;entryY=1;entryDx=0;entryDy=0;entryPerimeter=0;strokeColor=#FF0000;" parent="fNoOviHElrBXO7P96PJo-56" source="fNoOviHElrBXO7P96PJo-27" target="fNoOviHElrBXO7P96PJo-5" edge="1">
          <mxGeometry relative="1" as="geometry" />
        </mxCell>
        <mxCell id="fNoOviHElrBXO7P96PJo-34" value="Dati di allineamento riallineati e ricalibrati" style="ellipse;whiteSpace=wrap;html=1;rounded=1;fontSize=10;fillColor=#ffe6cc;strokeColor=#d79b00;gradientColor=#ffffff;" parent="fNoOviHElrBXO7P96PJo-56" vertex="1">
          <mxGeometry x="10" y="320" width="80" height="50" as="geometry" />
        </mxCell>
        <mxCell id="vsyQtTesX6xpcypo9VDb-5" style="edgeStyle=orthogonalEdgeStyle;rounded=0;orthogonalLoop=1;jettySize=auto;html=1;exitX=0.5;exitY=1;exitDx=0;exitDy=0;entryX=1;entryY=0.5;entryDx=0;entryDy=0;" parent="fNoOviHElrBXO7P96PJo-56" source="fNoOviHElrBXO7P96PJo-23" target="fNoOviHElrBXO7P96PJo-25" edge="1">
          <mxGeometry relative="1" as="geometry">
            <Array as="points">
              <mxPoint x="316" y="230" />
              <mxPoint x="366" y="230" />
              <mxPoint x="366" y="300" />
            </Array>
          </mxGeometry>
        </mxCell>
        <mxCell id="fNoOviHElrBXO7P96PJo-23" value="Dati di allineamento" style="ellipse;whiteSpace=wrap;html=1;rounded=1;fontSize=10;fillColor=#ffe6cc;strokeColor=#d79b00;gradientColor=#ffffff;" parent="fNoOviHElrBXO7P96PJo-56" vertex="1">
          <mxGeometry x="276" y="180" width="80" height="40" as="geometry" />
        </mxCell>
        <mxCell id="fNoOviHElrBXO7P96PJo-16" value="&lt;font style=&quot;font-size: 9px&quot;&gt;RNA-seq reads&lt;/font&gt;" style="ellipse;whiteSpace=wrap;html=1;rounded=1;fontSize=10;gradientColor=#ffffff;fillColor=#CCFF99;strokeColor=#CCFF99;" parent="fNoOviHElrBXO7P96PJo-56" vertex="1">
          <mxGeometry x="300" y="90" width="80" height="40" as="geometry" />
        </mxCell>
        <mxCell id="fNoOviHElrBXO7P96PJo-14" value="Trimmomatic" style="rounded=1;whiteSpace=wrap;html=1;fontSize=10;fillColor=#dae8fc;strokeColor=#6c8ebf;gradientColor=#ffffff;" parent="fNoOviHElrBXO7P96PJo-56" vertex="1">
          <mxGeometry x="190" y="90" width="80" height="40" as="geometry" />
        </mxCell>
        <mxCell id="fNoOviHElrBXO7P96PJo-18" value="Sequenza adattatrice" style="ellipse;whiteSpace=wrap;html=1;rounded=1;fontSize=10;gradientColor=#ffffff;fillColor=#CCFF99;strokeColor=#CCFF99;" parent="fNoOviHElrBXO7P96PJo-56" vertex="1">
          <mxGeometry x="190" y="30" width="80" height="40" as="geometry" />
        </mxCell>
        <mxCell id="fNoOviHElrBXO7P96PJo-19" style="edgeStyle=orthogonalEdgeStyle;rounded=0;orthogonalLoop=1;jettySize=auto;html=1;entryX=0.5;entryY=0;entryDx=0;entryDy=0;fontSize=10;" parent="fNoOviHElrBXO7P96PJo-56" source="fNoOviHElrBXO7P96PJo-18" target="fNoOviHElrBXO7P96PJo-14" edge="1">
          <mxGeometry relative="1" as="geometry" />
        </mxCell>
        <mxCell id="jYuElZ0psFMSYg52Es3L-28" style="edgeStyle=none;rounded=0;orthogonalLoop=1;jettySize=auto;html=1;fontSize=10;entryX=1;entryY=0.5;entryDx=0;entryDy=0;" parent="fNoOviHElrBXO7P96PJo-56" source="fNoOviHElrBXO7P96PJo-16" target="fNoOviHElrBXO7P96PJo-14" edge="1">
          <mxGeometry relative="1" as="geometry">
            <mxPoint x="300" y="70" as="targetPoint" />
          </mxGeometry>
        </mxCell>
        <mxCell id="fNoOviHElrBXO7P96PJo-3" value="Samtools" style="swimlane;rounded=1;swimlaneLine=1;fontSize=10;swimlaneFillColor=none;fillColor=#dae8fc;strokeColor=#6c8ebf;gradientColor=#ffffff;" parent="fNoOviHElrBXO7P96PJo-56" vertex="1">
          <mxGeometry x="26" y="150" width="230" height="80" as="geometry" />
        </mxCell>
        <mxCell id="vsyQtTesX6xpcypo9VDb-3" style="edgeStyle=orthogonalEdgeStyle;rounded=0;orthogonalLoop=1;jettySize=auto;html=1;exitX=1;exitY=0.5;exitDx=0;exitDy=0;entryX=0;entryY=0.5;entryDx=0;entryDy=0;" parent="fNoOviHElrBXO7P96PJo-3" source="fNoOviHElrBXO7P96PJo-4" target="fNoOviHElrBXO7P96PJo-5" edge="1">
          <mxGeometry relative="1" as="geometry" />
        </mxCell>
        <mxCell id="fNoOviHElrBXO7P96PJo-4" value="Ordinamento" style="rounded=1;whiteSpace=wrap;html=1;fontSize=10;fillColor=#e1d5e7;strokeColor=#9673a6;gradientColor=#ffffff;" parent="fNoOviHElrBXO7P96PJo-3" vertex="1">
          <mxGeometry x="20" y="40" width="80" height="20" as="geometry" />
        </mxCell>
        <mxCell id="fNoOviHElrBXO7P96PJo-5" value="Indicizzazione" style="rounded=1;whiteSpace=wrap;html=1;fontSize=10;fillColor=#e1d5e7;strokeColor=#9673a6;gradientColor=#ffffff;" parent="fNoOviHElrBXO7P96PJo-3" vertex="1">
          <mxGeometry x="128.5" y="40" width="80" height="20" as="geometry" />
        </mxCell>
        <mxCell id="vsyQtTesX6xpcypo9VDb-4" style="edgeStyle=orthogonalEdgeStyle;rounded=0;orthogonalLoop=1;jettySize=auto;html=1;exitX=1;exitY=0.5;exitDx=0;exitDy=0;" parent="fNoOviHElrBXO7P96PJo-56" source="fNoOviHElrBXO7P96PJo-5" target="fNoOviHElrBXO7P96PJo-23" edge="1">
          <mxGeometry relative="1" as="geometry" />
        </mxCell>
        <mxCell id="W9IB9yJmT7ebv6xMcdkx-2" value="Deduplicazione, riallineamento e ricalibrazione" style="swimlane;rounded=1;shadow=0;startSize=23;fontSize=10;fillColor=#dae8fc;strokeColor=#6c8ebf;gradientColor=#ffffff;" parent="fNoOviHElrBXO7P96PJo-56" vertex="1">
          <mxGeometry x="126" y="250" width="230" height="80" as="geometry" />
        </mxCell>
        <mxCell id="fNoOviHElrBXO7P96PJo-25" value="Picard" style="rounded=1;whiteSpace=wrap;html=1;fontSize=10;fillColor=#e1d5e7;strokeColor=#9673a6;gradientColor=#ffffff;" parent="W9IB9yJmT7ebv6xMcdkx-2" vertex="1">
          <mxGeometry x="130" y="40" width="80" height="20" as="geometry" />
        </mxCell>
        <mxCell id="fNoOviHElrBXO7P96PJo-27" value="Gatk" style="rounded=1;whiteSpace=wrap;html=1;fontSize=10;fillColor=#e1d5e7;strokeColor=#9673a6;gradientColor=#ffffff;" parent="W9IB9yJmT7ebv6xMcdkx-2" vertex="1">
          <mxGeometry x="20" y="40" width="80" height="20" as="geometry" />
        </mxCell>
        <mxCell id="vsyQtTesX6xpcypo9VDb-8" style="edgeStyle=orthogonalEdgeStyle;rounded=0;orthogonalLoop=1;jettySize=auto;html=1;exitX=0.5;exitY=0;exitDx=0;exitDy=0;strokeColor=#000000;" parent="fNoOviHElrBXO7P96PJo-56" source="jYuElZ0psFMSYg52Es3L-11" target="fNoOviHElrBXO7P96PJo-27" edge="1">
          <mxGeometry relative="1" as="geometry" />
        </mxCell>
        <mxCell id="jYuElZ0psFMSYg52Es3L-11" value="SNP conosciuti" style="ellipse;whiteSpace=wrap;html=1;rounded=1;fontSize=10;gradientColor=#ffffff;fillColor=#CCFF99;strokeColor=#CCFF99;" parent="fNoOviHElrBXO7P96PJo-56" vertex="1">
          <mxGeometry x="146" y="340" width="80" height="40" as="geometry" />
        </mxCell>
        <mxCell id="vsyQtTesX6xpcypo9VDb-14" style="edgeStyle=orthogonalEdgeStyle;rounded=0;orthogonalLoop=1;jettySize=auto;html=1;exitX=0;exitY=1;exitDx=0;exitDy=0;strokeColor=#FF0000;" parent="fNoOviHElrBXO7P96PJo-56" source="fNoOviHElrBXO7P96PJo-5" target="fNoOviHElrBXO7P96PJo-34" edge="1">
          <mxGeometry relative="1" as="geometry">
            <Array as="points">
              <mxPoint x="155" y="240" />
              <mxPoint x="126" y="240" />
              <mxPoint x="126" y="300" />
              <mxPoint x="50" y="300" />
            </Array>
          </mxGeometry>
        </mxCell>
        <mxCell id="jYuElZ0psFMSYg52Es3L-30" style="edgeStyle=orthogonalEdgeStyle;rounded=0;orthogonalLoop=1;jettySize=auto;html=1;exitX=0.5;exitY=1;exitDx=0;exitDy=0;fontSize=10;entryX=0;entryY=0.5;entryDx=0;entryDy=0;" parent="1" source="fNoOviHElrBXO7P96PJo-12" target="fNoOviHElrBXO7P96PJo-4" edge="1">
          <mxGeometry relative="1" as="geometry">
            <mxPoint x="120.33333333333348" y="239.9999999999999" as="targetPoint" />
            <Array as="points">
              <mxPoint x="120" y="210" />
              <mxPoint x="40" y="210" />
              <mxPoint x="40" y="270" />
            </Array>
          </mxGeometry>
        </mxCell>
        <mxCell id="fNoOviHElrBXO7P96PJo-12" value="STAR" style="rounded=1;whiteSpace=wrap;html=1;fontSize=10;fillColor=#dae8fc;strokeColor=#6c8ebf;gradientColor=#ffffff;" parent="1" vertex="1">
          <mxGeometry x="80" y="160" width="80" height="40" as="geometry" />
        </mxCell>
        <mxCell id="jYuElZ0psFMSYg52Es3L-27" style="edgeStyle=none;rounded=0;orthogonalLoop=1;jettySize=auto;html=1;exitX=0;exitY=0.5;exitDx=0;exitDy=0;fontSize=10;" parent="1" source="fNoOviHElrBXO7P96PJo-14" target="fNoOviHElrBXO7P96PJo-12" edge="1">
          <mxGeometry relative="1" as="geometry" />
        </mxCell>
        <mxCell id="fNoOviHElrBXO7P96PJo-21" style="edgeStyle=orthogonalEdgeStyle;rounded=0;orthogonalLoop=1;jettySize=auto;html=1;entryX=0.5;entryY=0;entryDx=0;entryDy=0;fontSize=10;" parent="1" source="fNoOviHElrBXO7P96PJo-20" target="fNoOviHElrBXO7P96PJo-12" edge="1">
          <mxGeometry relative="1" as="geometry" />
        </mxCell>
        <mxCell id="fNoOviHElrBXO7P96PJo-20" value="Genoma di riferimento" style="ellipse;whiteSpace=wrap;html=1;rounded=1;fontSize=10;gradientColor=#ffffff;fillColor=#CCFF99;strokeColor=#CCFF99;" parent="1" vertex="1">
          <mxGeometry x="80" y="100" width="80" height="40" as="geometry" />
        </mxCell>
        <mxCell id="vsyQtTesX6xpcypo9VDb-9" style="edgeStyle=orthogonalEdgeStyle;rounded=0;orthogonalLoop=1;jettySize=auto;html=1;exitX=0.5;exitY=1;exitDx=0;exitDy=0;strokeColor=#000000;" parent="1" source="fNoOviHElrBXO7P96PJo-37" target="fNoOviHElrBXO7P96PJo-40" edge="1">
          <mxGeometry relative="1" as="geometry" />
        </mxCell>
        <mxCell id="fNoOviHElrBXO7P96PJo-37" value="&lt;div style=&quot;font-size: 10px;&quot;&gt;Aseq&lt;/div&gt;" style="rounded=1;whiteSpace=wrap;html=1;fontSize=10;fillColor=#dae8fc;strokeColor=#6c8ebf;gradientColor=#ffffff;" parent="1" vertex="1">
          <mxGeometry x="80" y="480" width="80" height="40" as="geometry" />
        </mxCell>
        <mxCell id="fNoOviHElrBXO7P96PJo-40" value="Dati di pileup" style="ellipse;whiteSpace=wrap;html=1;rounded=1;fontSize=10;fillColor=#f8cecc;strokeColor=#b85450;gradientColor=#ffffff;" parent="1" vertex="1">
          <mxGeometry x="80" y="560" width="80" height="40" as="geometry" />
        </mxCell>
        <mxCell id="jYuElZ0psFMSYg52Es3L-20" value="Ottenimento degli SNP" style="swimlane;horizontal=0;rounded=1;direction=west;fontSize=10;fillColor=#e1d5e7;strokeColor=#9673a6;gradientColor=#ffffff;swimlaneFillColor=#ffffff;" parent="1" vertex="1">
          <mxGeometry x="214" y="470" width="200" height="140" as="geometry" />
        </mxCell>
        <mxCell id="jYuElZ0psFMSYg52Es3L-1" value="Bedtools" style="rounded=1;whiteSpace=wrap;html=1;fontSize=10;fillColor=#dae8fc;strokeColor=#6c8ebf;gradientColor=#ffffff;" parent="jYuElZ0psFMSYg52Es3L-20" vertex="1">
          <mxGeometry x="10" y="50" width="80" height="40" as="geometry" />
        </mxCell>
        <mxCell id="jYuElZ0psFMSYg52Es3L-37" style="edgeStyle=orthogonalEdgeStyle;rounded=0;orthogonalLoop=1;jettySize=auto;html=1;exitX=0;exitY=0.5;exitDx=0;exitDy=0;entryX=0.5;entryY=0;entryDx=0;entryDy=0;fontSize=10;" parent="jYuElZ0psFMSYg52Es3L-20" source="jYuElZ0psFMSYg52Es3L-5" target="jYuElZ0psFMSYg52Es3L-1" edge="1">
          <mxGeometry relative="1" as="geometry" />
        </mxCell>
        <mxCell id="jYuElZ0psFMSYg52Es3L-5" value="File vcf" style="ellipse;whiteSpace=wrap;html=1;fontSize=10;gradientColor=#ffffff;fillColor=#CCFF99;strokeColor=#CCFF99;" parent="jYuElZ0psFMSYg52Es3L-20" vertex="1">
          <mxGeometry x="90" y="10" width="80" height="40" as="geometry" />
        </mxCell>
        <mxCell id="jYuElZ0psFMSYg52Es3L-38" style="edgeStyle=orthogonalEdgeStyle;rounded=0;orthogonalLoop=1;jettySize=auto;html=1;exitX=0;exitY=0.5;exitDx=0;exitDy=0;entryX=0.5;entryY=1;entryDx=0;entryDy=0;fontSize=10;" parent="jYuElZ0psFMSYg52Es3L-20" source="jYuElZ0psFMSYg52Es3L-4" target="jYuElZ0psFMSYg52Es3L-1" edge="1">
          <mxGeometry relative="1" as="geometry" />
        </mxCell>
        <mxCell id="jYuElZ0psFMSYg52Es3L-4" value="File gtf" style="ellipse;whiteSpace=wrap;html=1;fontSize=10;gradientColor=#ffffff;fillColor=#CCFF99;strokeColor=#CCFF99;" parent="jYuElZ0psFMSYg52Es3L-20" vertex="1">
          <mxGeometry x="90" y="90" width="80" height="40" as="geometry" />
        </mxCell>
        <mxCell id="jYuElZ0psFMSYg52Es3L-36" style="edgeStyle=orthogonalEdgeStyle;rounded=0;orthogonalLoop=1;jettySize=auto;html=1;exitX=0;exitY=0.5;exitDx=0;exitDy=0;entryX=1;entryY=0.5;entryDx=0;entryDy=0;fontSize=10;" parent="1" source="jYuElZ0psFMSYg52Es3L-1" target="fNoOviHElrBXO7P96PJo-37" edge="1">
          <mxGeometry relative="1" as="geometry" />
        </mxCell>
        <mxCell id="vsyQtTesX6xpcypo9VDb-10" style="edgeStyle=orthogonalEdgeStyle;rounded=0;orthogonalLoop=1;jettySize=auto;html=1;exitX=0.5;exitY=1;exitDx=0;exitDy=0;strokeColor=#000000;" parent="1" source="fNoOviHElrBXO7P96PJo-34" target="fNoOviHElrBXO7P96PJo-37" edge="1">
          <mxGeometry relative="1" as="geometry">
            <Array as="points">
              <mxPoint x="74" y="470" />
              <mxPoint x="120" y="470" />
            </Array>
          </mxGeometry>
        </mxCell>
      </root>
    </mxGraphModel>
  </diagram>
</mxfile>
